<?xml version="1.0" encoding="UTF-8"?>
<svg width="700pt" height="700pt" version="1.1" viewBox="0 0 700 700" xmlns="http://www.w3.org/2000/svg">
 <g>
  <path d="m547.93 279.94c9.6328 0.82031 18.102-6.3242 18.922-15.953 0.82031-9.6289-6.3242-18.102-15.953-18.922l-122.14-10.398 196.12-196.12c6.832-6.832 6.832-17.914 0-24.746-6.8359-6.8359-17.914-6.8359-24.75 0l-196.12 196.12-10.398-122.14c-0.81641-9.6289-9.2891-16.77-18.922-15.953-9.6289 0.82031-16.77 9.293-15.949 18.922l13.59 159.65c0.72266 8.4922 7.4609 15.227 15.953 15.949z"/>
  <path d="m152.07 280.06c-9.6328-0.82031-18.102 6.3242-18.922 15.953-0.82031 9.6289 6.3203 18.102 15.953 18.922l122.14 10.398-196.12 196.12c-6.832 6.832-6.832 17.914 0 24.746 6.8359 6.8359 17.914 6.8359 24.75 0l196.12-196.12 10.398 122.14c0.81641 9.6289 9.2891 16.77 18.922 15.953 9.6289-0.82031 16.77-9.293 15.949-18.922l-13.59-159.65c-0.72266-8.4922-7.4609-15.227-15.953-15.949z"/>
 </g>
</svg>
