<?xml version="1.0" encoding="UTF-8"?>
<svg width="700pt" height="700pt" version="1.1" viewBox="0 0 700 700" xmlns="http://www.w3.org/2000/svg">
 <g>
  <path d="m570.96 384.3-86.801 86.777 0.003907-307.75c0-6.25-3.3359-12.027-8.75-15.152-5.4141-3.1289-12.086-3.1289-17.5 0-5.4141 3.125-8.75 8.9023-8.75 15.152v307.75l-86.801-86.777c-4.4688-4.1641-10.781-5.6953-16.66-4.0469-5.875 1.6484-10.469 6.2422-12.121 12.121-1.6484 5.8789-0.11328 12.191 4.0469 16.66l116.67 116.67v-0.003906c3.2852 3.2734 7.7305 5.1094 12.367 5.1094 4.6328 0 9.082-1.8359 12.367-5.1094l116.67-116.67-0.003906 0.003906c4.1641-4.4688 5.6953-10.781 4.0469-16.66-1.6484-5.8789-6.2422-10.473-12.121-12.121-5.8789-1.6484-12.191-0.11719-16.66 4.0469z"/>
  <path d="m350 180.83c4.6367-0.003906 9.0859-1.8477 12.363-5.1289 3.2773-3.2812 5.1211-7.7305 5.1211-12.367 0-4.6406-1.8398-9.0859-5.1172-12.371l-116.67-116.67v0.003906c-3.2852-3.2734-7.7305-5.1094-12.367-5.1094-4.6328 0-9.082 1.8359-12.367 5.1094l-116.67 116.67 0.003906-0.003906c-4.1641 4.4688-5.6953 10.781-4.0469 16.66 1.6484 5.8789 6.2422 10.473 12.121 12.121 5.8789 1.6484 12.191 0.11719 16.66-4.0469l86.797-86.777v307.75c0 6.25 3.3359 12.027 8.75 15.152 5.4141 3.1289 12.086 3.1289 17.5 0 5.4141-3.125 8.75-8.9023 8.75-15.152v-307.75l86.801 86.777c3.2695 3.2969 7.7227 5.1445 12.367 5.1328z"/>
 </g>
</svg>
